STARTFONT 2.1
FONT -FontForge-Nasalization-Book-R-Normal--12-120-75-75-P-78-ISO10646-1
SIZE 12 75 75
FONTBOUNDINGBOX 13 12 -1 -3
COMMENT "Generated by fontforge, http://fontforge.sourceforge.net"
COMMENT "(c) 1999-2024 Typodermic Fonts Inc."
STARTPROPERTIES 39
FOUNDRY "FontForge"
FAMILY_NAME "Nasalization"
WEIGHT_NAME "Book"
SLANT "R"
SETWIDTH_NAME "Normal"
ADD_STYLE_NAME ""
PIXEL_SIZE 12
POINT_SIZE 120
RESOLUTION_X 75
RESOLUTION_Y 75
SPACING "P"
AVERAGE_WIDTH 78
CHARSET_REGISTRY "ISO10646"
CHARSET_ENCODING "1"
FONTNAME_REGISTRY ""
CHARSET_COLLECTIONS "ISO10646-1"
FONT_NAME "Nasalization-Regular"
FACE_NAME "Nasalization Regular"
COPYRIGHT "(c) 1999-2024 Typodermic Fonts Inc."
FONT_VERSION "5.100"
FONT_ASCENT 10
FONT_DESCENT 2
UNDERLINE_POSITION -1
UNDERLINE_THICKNESS 1
X_HEIGHT 5
CAP_HEIGHT 7
RAW_ASCENT 800
RAW_DESCENT 200
NORM_SPACE 3
RELATIVE_WEIGHT 40
RELATIVE_SETWIDTH 50
SUPERSCRIPT_X 0
SUPERSCRIPT_Y 3
SUPERSCRIPT_SIZE 3
SUBSCRIPT_X 0
SUBSCRIPT_Y 0
SUBSCRIPT_SIZE 3
AVG_LOWERCASE_WIDTH 72
AVG_UPPERCASE_WIDTH 87
ENDPROPERTIES
CHARS 66
STARTCHAR space
ENCODING 32
SWIDTH 267 0
DWIDTH 3 0
BBX 1 1 0 0
BITMAP
00
ENDCHAR
STARTCHAR dollar
ENCODING 36
SWIDTH 620 0
DWIDTH 7 0
BBX 6 10 1 -1
BITMAP
20
20
F8
80
C0
78
0C
F8
20
20
ENDCHAR
STARTCHAR zero
ENCODING 48
SWIDTH 748 0
DWIDTH 9 0
BBX 7 8 1 0
BITMAP
7C
C6
86
82
82
86
CC
7C
ENDCHAR
STARTCHAR one
ENCODING 49
SWIDTH 337 0
DWIDTH 4 0
BBX 3 8 0 0
BITMAP
E0
20
20
20
20
20
20
20
ENDCHAR
STARTCHAR two
ENCODING 50
SWIDTH 734 0
DWIDTH 9 0
BBX 7 8 1 0
BITMAP
FE
06
02
1E
F8
80
80
FE
ENDCHAR
STARTCHAR three
ENCODING 51
SWIDTH 681 0
DWIDTH 8 0
BBX 6 8 1 0
BITMAP
FC
04
04
7C
7C
04
0C
FC
ENDCHAR
STARTCHAR four
ENCODING 52
SWIDTH 704 0
DWIDTH 8 0
BBX 7 8 0 0
BITMAP
0E
12
32
62
C2
FE
02
02
ENDCHAR
STARTCHAR five
ENCODING 53
SWIDTH 685 0
DWIDTH 8 0
BBX 7 8 1 0
BITMAP
FC
80
80
FC
04
06
04
FC
ENDCHAR
STARTCHAR six
ENCODING 54
SWIDTH 713 0
DWIDTH 9 0
BBX 7 8 1 0
BITMAP
7C
C0
80
FC
86
82
E6
7C
ENDCHAR
STARTCHAR seven
ENCODING 55
SWIDTH 651 0
DWIDTH 8 0
BBX 7 8 0 0
BITMAP
FE
02
02
06
0C
18
10
30
ENDCHAR
STARTCHAR eight
ENCODING 56
SWIDTH 726 0
DWIDTH 9 0
BBX 7 8 1 0
BITMAP
FC
C6
82
FE
FE
82
C6
FC
ENDCHAR
STARTCHAR nine
ENCODING 57
SWIDTH 713 0
DWIDTH 9 0
BBX 7 8 1 0
BITMAP
FC
8C
86
C6
7E
06
0C
78
ENDCHAR
STARTCHAR equal
ENCODING 61
SWIDTH 619 0
DWIDTH 7 0
BBX 7 4 0 2
BITMAP
FE
00
00
FE
ENDCHAR
STARTCHAR A
ENCODING 65
SWIDTH 784 0
DWIDTH 9 0
BBX 9 8 0 0
BITMAP
1C00
1600
3200
3200
2300
6100
4180
C180
ENDCHAR
STARTCHAR B
ENCODING 66
SWIDTH 719 0
DWIDTH 9 0
BBX 7 8 1 0
BITMAP
FC
86
86
FC
FE
82
86
FC
ENDCHAR
STARTCHAR C
ENCODING 67
SWIDTH 682 0
DWIDTH 8 0
BBX 6 8 1 0
BITMAP
7C
C0
80
80
80
80
E0
7C
ENDCHAR
STARTCHAR D
ENCODING 68
SWIDTH 737 0
DWIDTH 9 0
BBX 7 8 1 0
BITMAP
FC
86
82
82
82
86
8E
FC
ENDCHAR
STARTCHAR E
ENCODING 69
SWIDTH 693 0
DWIDTH 8 0
BBX 6 8 1 0
BITMAP
FC
C0
80
FC
FC
80
C0
FC
ENDCHAR
STARTCHAR F
ENCODING 70
SWIDTH 663 0
DWIDTH 8 0
BBX 6 8 1 0
BITMAP
7C
C0
80
FC
FC
80
80
80
ENDCHAR
STARTCHAR G
ENCODING 71
SWIDTH 729 0
DWIDTH 9 0
BBX 7 8 1 0
BITMAP
7E
C0
80
9C
86
82
E6
7C
ENDCHAR
STARTCHAR H
ENCODING 72
SWIDTH 745 0
DWIDTH 9 0
BBX 7 8 1 0
BITMAP
82
82
82
FE
FE
82
82
82
ENDCHAR
STARTCHAR I
ENCODING 73
SWIDTH 281 0
DWIDTH 3 0
BBX 1 8 1 0
BITMAP
80
80
80
80
80
80
80
80
ENDCHAR
STARTCHAR J
ENCODING 74
SWIDTH 583 0
DWIDTH 7 0
BBX 6 8 0 0
BITMAP
04
04
04
04
04
04
0C
F8
ENDCHAR
STARTCHAR K
ENCODING 75
SWIDTH 708 0
DWIDTH 9 0
BBX 7 8 1 0
BITMAP
86
84
8C
F8
F8
8C
84
86
ENDCHAR
STARTCHAR L
ENCODING 76
SWIDTH 622 0
DWIDTH 7 0
BBX 6 8 1 0
BITMAP
80
80
80
80
80
80
C0
7C
ENDCHAR
STARTCHAR M
ENCODING 77
SWIDTH 1102 0
DWIDTH 13 0
BBX 11 8 1 0
BITMAP
F0E0
B1A0
9120
9120
9920
9B20
8B20
8E20
ENDCHAR
STARTCHAR N
ENCODING 78
SWIDTH 879 0
DWIDTH 11 0
BBX 9 8 1 0
BITMAP
E180
B180
9180
9980
8980
8D80
8580
8700
ENDCHAR
STARTCHAR O
ENCODING 79
SWIDTH 816 0
DWIDTH 10 0
BBX 8 8 1 0
BITMAP
7E
C3
83
81
81
83
E7
7E
ENDCHAR
STARTCHAR P
ENCODING 80
SWIDTH 679 0
DWIDTH 8 0
BBX 7 8 1 0
BITMAP
FC
06
06
0C
FC
80
80
80
ENDCHAR
STARTCHAR Q
ENCODING 81
SWIDTH 816 0
DWIDTH 10 0
BBX 8 9 1 -1
BITMAP
7E
C3
83
81
81
8B
EF
7E
06
ENDCHAR
STARTCHAR R
ENCODING 82
SWIDTH 714 0
DWIDTH 9 0
BBX 7 8 1 0
BITMAP
FC
06
02
06
FC
8C
84
86
ENDCHAR
STARTCHAR S
ENCODING 83
SWIDTH 703 0
DWIDTH 8 0
BBX 7 8 1 0
BITMAP
FC
80
80
FC
7E
06
06
FC
ENDCHAR
STARTCHAR T
ENCODING 84
SWIDTH 571 0
DWIDTH 7 0
BBX 7 8 0 0
BITMAP
FE
10
10
10
10
10
10
10
ENDCHAR
STARTCHAR U
ENCODING 85
SWIDTH 732 0
DWIDTH 9 0
BBX 7 8 1 0
BITMAP
86
86
86
86
86
86
C6
7C
ENDCHAR
STARTCHAR V
ENCODING 86
SWIDTH 784 0
DWIDTH 9 0
BBX 9 8 0 0
BITMAP
C180
4180
6100
2300
3200
3600
1600
1C00
ENDCHAR
STARTCHAR W
ENCODING 87
SWIDTH 1046 0
DWIDTH 13 0
BBX 12 8 0 0
BITMAP
C710
4D10
4D30
4930
49B0
49B0
78A0
70E0
ENDCHAR
STARTCHAR X
ENCODING 88
SWIDTH 781 0
DWIDTH 9 0
BBX 8 8 1 0
BITMAP
C3
66
2C
18
38
6C
46
83
ENDCHAR
STARTCHAR Y
ENCODING 89
SWIDTH 689 0
DWIDTH 8 0
BBX 7 8 1 0
BITMAP
86
CC
68
38
30
30
30
30
ENDCHAR
STARTCHAR Z
ENCODING 90
SWIDTH 743 0
DWIDTH 9 0
BBX 7 8 1 0
BITMAP
FE
02
06
1C
70
80
80
FE
ENDCHAR
STARTCHAR a
ENCODING 97
SWIDTH 672 0
DWIDTH 8 0
BBX 6 6 1 0
BITMAP
FC
04
7C
84
84
FC
ENDCHAR
STARTCHAR b
ENCODING 98
SWIDTH 695 0
DWIDTH 8 0
BBX 7 9 1 0
BITMAP
80
80
80
FC
86
86
86
C4
7C
ENDCHAR
STARTCHAR c
ENCODING 99
SWIDTH 602 0
DWIDTH 7 0
BBX 6 6 1 0
BITMAP
FC
80
80
80
80
7C
ENDCHAR
STARTCHAR d
ENCODING 100
SWIDTH 695 0
DWIDTH 8 0
BBX 6 9 1 0
BITMAP
04
04
04
FC
84
84
84
84
7C
ENDCHAR
STARTCHAR e
ENCODING 101
SWIDTH 652 0
DWIDTH 8 0
BBX 6 6 1 0
BITMAP
FC
84
FC
80
80
FC
ENDCHAR
STARTCHAR f
ENCODING 102
SWIDTH 375 0
DWIDTH 5 0
BBX 4 9 0 0
BITMAP
70
40
40
F0
40
40
40
40
40
ENDCHAR
STARTCHAR g
ENCODING 103
SWIDTH 692 0
DWIDTH 8 0
BBX 6 9 1 -3
BITMAP
FC
84
84
84
C4
7C
04
FC
F8
ENDCHAR
STARTCHAR h
ENCODING 104
SWIDTH 707 0
DWIDTH 8 0
BBX 7 9 1 0
BITMAP
80
80
80
FC
84
86
86
86
86
ENDCHAR
STARTCHAR i
ENCODING 105
SWIDTH 258 0
DWIDTH 3 0
BBX 1 9 1 0
BITMAP
80
80
00
80
80
80
80
80
80
ENDCHAR
STARTCHAR j
ENCODING 106
SWIDTH 270 0
DWIDTH 3 0
BBX 3 12 -1 -3
BITMAP
20
20
00
20
20
20
20
20
20
20
E0
C0
ENDCHAR
STARTCHAR k
ENCODING 107
SWIDTH 602 0
DWIDTH 7 0
BBX 6 9 1 0
BITMAP
80
80
80
88
98
F0
98
88
8C
ENDCHAR
STARTCHAR l
ENCODING 108
SWIDTH 258 0
DWIDTH 3 0
BBX 1 9 1 0
BITMAP
80
80
80
80
80
80
80
80
80
ENDCHAR
STARTCHAR m
ENCODING 109
SWIDTH 1032 0
DWIDTH 12 0
BBX 11 6 1 0
BITMAP
FFC0
8440
8460
8460
8460
8460
ENDCHAR
STARTCHAR n
ENCODING 110
SWIDTH 707 0
DWIDTH 8 0
BBX 7 6 1 0
BITMAP
FC
84
86
86
86
86
ENDCHAR
STARTCHAR o
ENCODING 111
SWIDTH 671 0
DWIDTH 8 0
BBX 6 6 1 0
BITMAP
FC
84
84
84
84
78
ENDCHAR
STARTCHAR p
ENCODING 112
SWIDTH 693 0
DWIDTH 8 0
BBX 7 9 1 -3
BITMAP
FC
86
86
86
84
FC
80
80
80
ENDCHAR
STARTCHAR q
ENCODING 113
SWIDTH 693 0
DWIDTH 8 0
BBX 6 9 1 -3
BITMAP
FC
84
84
84
84
7C
04
04
04
ENDCHAR
STARTCHAR r
ENCODING 114
SWIDTH 463 0
DWIDTH 6 0
BBX 4 6 1 0
BITMAP
F0
80
80
80
80
80
ENDCHAR
STARTCHAR s
ENCODING 115
SWIDTH 586 0
DWIDTH 7 0
BBX 5 6 1 0
BITMAP
F8
80
F8
08
08
F8
ENDCHAR
STARTCHAR t
ENCODING 116
SWIDTH 375 0
DWIDTH 5 0
BBX 4 8 0 0
BITMAP
40
40
F0
40
40
40
60
30
ENDCHAR
STARTCHAR u
ENCODING 117
SWIDTH 702 0
DWIDTH 8 0
BBX 7 6 1 0
BITMAP
86
86
86
86
C4
7C
ENDCHAR
STARTCHAR v
ENCODING 118
SWIDTH 677 0
DWIDTH 8 0
BBX 7 6 1 0
BITMAP
86
84
CC
48
78
30
ENDCHAR
STARTCHAR w
ENCODING 119
SWIDTH 977 0
DWIDTH 12 0
BBX 11 6 0 0
BITMAP
CE20
4B20
4920
4960
5960
71C0
ENDCHAR
STARTCHAR x
ENCODING 120
SWIDTH 681 0
DWIDTH 8 0
BBX 6 6 1 0
BITMAP
C4
68
30
38
4C
84
ENDCHAR
STARTCHAR y
ENCODING 121
SWIDTH 647 0
DWIDTH 8 0
BBX 6 9 1 -3
BITMAP
84
8C
C8
48
70
30
30
20
60
ENDCHAR
STARTCHAR z
ENCODING 122
SWIDTH 624 0
DWIDTH 7 0
BBX 6 6 1 0
BITMAP
FC
04
38
C0
80
FC
ENDCHAR
STARTCHAR degree
ENCODING 176
SWIDTH 389 0
DWIDTH 5 0
BBX 4 4 0 4
BITMAP
70
80
10
60
ENDCHAR
ENDFONT
